# xmcd
#
# Track frame offsets: 
#        150
#        15415
#        30038
#        41444
#        50805
#        69759
#        82420
#        97340
#        111421
#        125127
#        136413
#        152334
#        162984
#        176895
#        191030
#        207919
#
# Disc length: 2957 seconds
#
# Revision: 1
# Processed by: cddbd v1.5.1PL0 Copyright (c) Steve Scherf et al.
# Submitted via: ExactAudioCopy v0.95a5
#
DISCID=e00b8b10
DTITLE=Valentín Elizalde - 16 Exitos
DYEAR=2001
DGENRE=Banda
TTITLE0=El escape del Chapo
TTITLE1=La suavecita
TTITLE2=Esta cobardía
TTITLE3=La chiclanera
TTITLE4=Una noche para dos
TTITLE5=Ebrio de amor
TTITLE6=El rey pobre
TTITLE7=Nuestro jale
TTITLE8=La playa
TTITLE9=Mi virgencita
TTITLE10=Hola y adiós
TTITLE11=Siempre te amaré
TTITLE12=Amor que muere
TTITLE13=La mariquita
TTITLE14=A mi Sonora
TTITLE15=Falsa mujer
EXTD=
EXTT0=
EXTT1=
EXTT2=
EXTT3=
EXTT4=
EXTT5=
EXTT6=
EXTT7=
EXTT8=
EXTT9=
EXTT10=
EXTT11=
EXTT12=
EXTT13=
EXTT14=
EXTT15=
PLAYORDER=
